<svg xmlns="http://www.w3.org/2000/svg" viewBox="0 0 120 40" width="120" height="40">
  <!-- Stethoscope -->
  <path d="M 15 8 Q 10 8 10 13 Q 10 18 15 18" stroke="#003893" stroke-width="2.5" fill="none" stroke-linecap="round"/>
  <path d="M 25 8 Q 30 8 30 13 Q 30 18 25 18" stroke="#003893" stroke-width="2.5" fill="none" stroke-linecap="round"/>
  <path d="M 15 18 L 15 25 Q 15 32 20 32 Q 25 32 25 25 L 25 18" stroke="#003893" stroke-width="2.5" fill="none" stroke-linecap="round"/>

  <!-- Medical Cross Circle -->
  <circle cx="20" cy="30" r="6" fill="#003893"/>
  <rect x="18.5" y="27" width="3" height="6" fill="white" rx="0.5"/>
  <rect x="17" y="28.5" width="6" height="3" fill="white" rx="0.5"/>

  <!-- Stars -->
  <polygon points="38,8 39,11 42,11 39.5,13 40.5,16 38,14 35.5,16 36.5,13 34,11 37,11" fill="#FFD700"/>
  <polygon points="44,6 45,8 47,8 45.5,9.5 46,11.5 44,10 42,11.5 42.5,9.5 41,8 43,8" fill="#FFD700"/>
  <polygon points="32,6 33,8 35,8 33.5,9.5 34,11.5 32,10 30,11.5 30.5,9.5 29,8 31,8" fill="#FFA500"/>

  <!-- Green leaves -->
  <ellipse cx="42" cy="18" rx="3" ry="5" fill="#4CAF50" transform="rotate(-20 42 18)"/>
  <ellipse cx="47" cy="16" rx="3" ry="5" fill="#4CAF50" transform="rotate(15 47 16)"/>
  <ellipse cx="37" cy="16" rx="2.5" ry="4" fill="#66BB6A" transform="rotate(-35 37 16)"/>
</svg>
